<?xml version="1.0" encoding="utf-8"?>
<!-- Generator: Adobe Illustrator 27.0.0, SVG Export Plug-In . SVG Version: 6.00 Build 0)  -->
<svg version="1.1" id="Layer_1" xmlns="http://www.w3.org/2000/svg" xmlns:xlink="http://www.w3.org/1999/xlink" x="0px" y="0px"
	 viewBox="0 0 512.7 83.4" style="enable-background:new 0 0 512.7 83.4;" xml:space="preserve">
<style type="text/css">
	.st0{fill:#0090FC;}
	.st1{fill:#FCA807;}
	.st2{fill:#05303A;}
</style>
<g>
	<path class="st0" d="M43.9,2.2c8.2,0,14.9,6.7,14.9,14.9S52.1,32,43.9,32S29,25.3,29,17.1S35.7,2.2,43.9,2.2 M43.9,0
		c-9.4,0-17.1,7.6-17.1,17.1s7.6,17.1,17.1,17.1s17-7.6,17-17S53.3,0,43.9,0L43.9,0z"/>
	<path class="st1" d="M86.9,12.6c3.9,0,7.6,1.5,10.3,4.3l8.7,8.7L54.8,76.8c-2.9,2.9-6.8,4.5-10.9,4.5s-8-1.6-10.9-4.5l-8.1-8.1
		L76.6,17C79.4,14.2,83,12.6,86.9,12.6 M86.9,10.5c-4.3,0-8.6,1.6-11.8,4.9L21.9,68.6l9.7,9.7c3.4,3.4,7.9,5.1,12.4,5.1
		s9-1.7,12.4-5.1L109,25.6L98.8,15.4C95.5,12.1,91.2,10.5,86.9,10.5L86.9,10.5L86.9,10.5z"/>
	<g>
		<path class="st0" d="M21.9,68.6l1.5-1.5L3,46.8l8.7-8.7c2.8-2.8,6.4-4.3,10.3-4.3s7.6,1.5,10.3,4.3l10,10l1.5-1.5l-10-10
			c-3.3-3.3-7.5-4.9-11.8-4.9s-8.6,1.6-11.8,4.9L0,46.8L21.9,68.6z"/>
		
			<rect x="53.1" y="44.9" transform="matrix(0.7071 -0.7071 0.7071 0.7071 -25.4023 55.4093)" class="st0" width="2.2" height="26.9"/>
	</g>
</g>
<g>
	<path class="st2" d="M129.4,24.3c-1.2-1.1-1.8-2.6-1.8-4.3s0.6-3.1,1.8-4.2s2.7-1.7,4.5-1.7s3.3,0.6,4.5,1.7
		c1.2,1.2,1.8,2.6,1.8,4.2s-0.6,3.1-1.8,4.3c-1.2,1.1-2.7,1.7-4.5,1.7S130.6,25.4,129.4,24.3z M128.9,31.4h9.8v38.1h-9.8V31.4z"/>
	<path class="st2" d="M285.1,24.3c-1.2-1.1-1.8-2.6-1.8-4.3s0.6-3.1,1.8-4.2c1.2-1.1,2.7-1.7,4.5-1.7s3.3,0.6,4.5,1.7
		c1.2,1.2,1.8,2.6,1.8,4.2s-0.6,3.1-1.8,4.3c-1.2,1.1-2.7,1.7-4.5,1.7S286.3,25.4,285.1,24.3L285.1,24.3z M284.6,31.4h9.8v38.1h-9.8
		V31.4z"/>
	<path class="st2" d="M144.5,31.4h9.1V37c0.6-1.7,1.8-3.1,3.4-4.2c2.3-1.6,5.1-2.4,8.2-2.4s5.8,0.6,8.2,1.9c2.4,1.2,4.2,3,5.4,5.3
		c1.3,2.3,1.9,4.9,1.9,7.9v23.9H171V47.6c0-3-0.7-5.3-2.2-6.9c-1.5-1.6-3.4-2.4-5.9-2.4c-2.7,0-4.8,0.8-6.4,2.4
		c-1.6,1.6-2.4,3.9-2.4,6.9v21.8h-9.7L144.5,31.4L144.5,31.4z"/>
	<path class="st2" d="M253.3,15.8h9.7v53.6h-9.7V15.8z"/>
	<path class="st2" d="M269,15.8h9.7v53.6H269V15.8z"/>
	<path class="st2" d="M308.9,68.1c-3.3-1.7-5.8-4-7.7-7.1c-1.9-3-2.8-6.5-2.8-10.4s1-7.4,2.9-10.4s4.5-5.4,7.7-7.1s6.8-2.5,10.7-2.5
		c3.2,0,6.1,0.6,8.8,1.9c2.7,1.2,5,3,7,5.3l-6.3,5.6c-1.2-1.5-2.5-2.6-4.1-3.3c-1.5-0.7-3.4-1.1-5.4-1.1c-2.2,0-4.1,0.5-5.8,1.4
		c-1.7,0.9-3,2.3-4,4c-1,1.8-1.4,3.9-1.4,6.2s0.5,4.5,1.4,6.2c1,1.8,2.3,3.1,4,4s3.7,1.4,6,1.4s4-0.4,5.6-1.1c1.6-0.7,3-1.8,4.1-3.3
		l6.4,5.6c-2,2.3-4.4,4-7.1,5.3s-5.7,1.9-9,1.9C315.8,70.5,312.2,69.7,308.9,68.1L308.9,68.1z"/>
	<path class="st2" d="M339.3,20.4L349,17v18.1c0.8-1,1.7-1.9,2.9-2.6c2.1-1.4,4.9-2.1,8.2-2.1c3.1,0,5.8,0.6,8.2,1.9
		c2.4,1.2,4.2,3,5.5,5.3s1.9,4.9,1.9,7.9v23.9H366V47.7c0-3-0.7-5.3-2.2-6.9c-1.5-1.6-3.5-2.4-5.9-2.4c-2.7,0-4.8,0.8-6.4,2.4
		s-2.4,3.9-2.4,6.9v21.8h-9.7L339.3,20.4L339.3,20.4z"/>
	<path class="st2" d="M378.6,50.5c0-3.7,0.9-7,2.7-10.1c1.8-3.1,4.3-5.5,7.4-7.3s6.5-2.7,10.3-2.7s7.1,0.8,10.1,2.3s5.3,3.8,7,6.7
		s2.5,6.4,2.5,10.4v3.4h-30c0.3,1.2,0.7,2.3,1.2,3.3c1,1.8,2.4,3.1,4.2,4.1s3.9,1.4,6.2,1.4s4.2-0.4,6-1.1c1.8-0.7,3.2-1.8,4.4-3.3
		l6.3,5.6c-2,2.3-4.4,4-7.2,5.3c-2.8,1.2-5.9,1.9-9.2,1.9c-4.1,0-7.9-0.8-11.2-2.5c-3.4-1.7-6-4-7.9-7.1
		C379.5,57.9,378.5,54.4,378.6,50.5L378.6,50.5z M388.7,46.2h20c-0.2-1.1-0.5-2.2-0.9-3.1c-0.7-1.4-1.8-2.5-3.2-3.3
		c-1.4-0.8-3.2-1.2-5.5-1.2c-2.5,0-4.5,0.5-6.1,1.5s-2.8,2.4-3.5,4.2C389.1,44.8,388.9,45.5,388.7,46.2L388.7,46.2z"/>
	<path class="st2" d="M431.2,68.1c-3.3-1.7-5.8-4-7.7-7.1c-1.9-3-2.8-6.5-2.8-10.4s1-7.4,2.9-10.4s4.5-5.4,7.7-7.1s6.8-2.5,10.7-2.5
		c3.2,0,6.1,0.6,8.8,1.9c2.7,1.2,5,3,7,5.3l-6.3,5.6c-1.2-1.5-2.5-2.6-4.1-3.3c-1.5-0.7-3.4-1.1-5.4-1.1c-2.2,0-4.1,0.5-5.8,1.4
		c-1.7,0.9-3,2.3-4,4c-1,1.8-1.4,3.9-1.4,6.2s0.5,4.5,1.4,6.2c1,1.8,2.3,3.1,4,4s3.7,1.4,6,1.4s4-0.4,5.6-1.1c1.6-0.7,3-1.8,4.1-3.3
		l6.4,5.6c-2,2.3-4.4,4-7.1,5.3s-5.7,1.9-9,1.9C438.1,70.5,434.5,69.7,431.2,68.1L431.2,68.1z"/>
	<path class="st2" d="M460.8,20.4l9.7-3.4v30l17.3-15.6H500l-15.9,14.2L500,69.4h-11.3l-11.5-17.9l-6.6,5.6v12.3h-9.7L460.8,20.4
		L460.8,20.4z"/>
	<path class="st2" d="M207.6,60.9c-1,0.3-2.1,0.7-3.2,0.7c-2,0-3-0.3-4.2-1.4c-1.2-1.1-1.7-2.8-1.7-5.3V39.5h10.2v-8.1h-10.2v-9.1
		l-9.8,3.3v5.8h-6.5v8.1h6.5v16.6c0,4.5,1.3,7.9,3.8,10.3s6.2,3.7,11,3.7c2.4,0,5.7-0.8,7.9-1.8L207.6,60.9L207.6,60.9z"/>
	<path class="st2" d="M209.6,50.5c0-3.7,0.9-7,2.7-10.1s4.3-5.5,7.4-7.3c3.1-1.8,6.5-2.7,10.3-2.7s7.1,0.8,10.1,2.3s5.3,3.8,7,6.7
		s2.6,6.4,2.6,10.4v3.4h-30c0.3,1.2,0.7,2.3,1.2,3.3c1,1.8,2.4,3.1,4.2,4.1s3.9,1.4,6.2,1.4s4.2-0.4,6-1.1c1.8-0.7,3.2-1.8,4.4-3.3
		l6.3,5.6c-2,2.3-4.4,4-7.2,5.3c-2.8,1.2-5.9,1.9-9.2,1.9c-4.1,0-7.9-0.8-11.2-2.5c-3.4-1.7-6-4-7.9-7.1
		C210.5,57.9,209.6,54.4,209.6,50.5L209.6,50.5z M219.7,46.2h20c-0.2-1.1-0.5-2.2-0.9-3.1c-0.7-1.4-1.8-2.5-3.2-3.3
		s-3.2-1.2-5.5-1.2c-2.5,0-4.5,0.5-6.1,1.5s-2.8,2.4-3.5,4.2C220.2,44.8,219.9,45.5,219.7,46.2L219.7,46.2z"/>
</g>
<path class="st2" d="M501.5,19.4h1.2l1.3,3.4l1.3-3.4h1.2V24h-0.7v-4l-1.3,3.4h-0.9l-1.3-3.4v4h-0.7V19.4z"/>
<path class="st2" d="M498.4,20.1h-1.7v-0.7h4v0.7h-1.7v4h-0.7V20.1z"/>
</svg>
